<svg width="120" height="94" viewBox="0 0 120 94" fill="none" xmlns="http://www.w3.org/2000/svg">
<path d="M78.1486 21.7924C78.1486 21.7924 74.8225 20.4477 69.8832 19.5226C69.4744 19.4463 69.0766 19.3795 69.0766 19.3795C68.3694 19.2651 67.7395 19.1983 66.9771 19.1125C65.9826 18.9981 63.419 18.8359 59.6621 18.8169C56.9769 18.8073 55.3636 18.8932 53.1205 19.246C52.4354 19.3509 49.6729 19.8183 46.2143 21.0676C45.3856 21.3728 42.9104 22.2979 40.0042 23.9574C37.5954 25.3307 35.8937 26.6278 35.1091 27.2572C33.5511 28.4971 32.3577 29.6606 31.6837 30.3282C31.2527 30.7478 30.9544 31.0626 30.7555 31.2724C29.982 32.0926 29.3963 32.8079 28.8991 33.4182C26.9101 35.8693 25.6725 37.8912 25.1753 38.7495C24.5454 39.8463 24.1476 40.6379 23.9929 40.9526C23.8935 41.1624 23.5067 41.9731 23.0758 43.0794C23.0758 43.0794 22.6227 44.2334 22.2691 45.4064C20.3796 51.6247 21.0978 58.005 21.0978 58.005C21.2967 59.7408 21.584 61.0283 21.7829 61.8771C22.2691 63.9657 23.2305 68.0095 25.8935 72.3393C27.2968 74.6283 29.4516 77.4513 29.6505 77.7088C30.2582 78.5099 30.5566 78.9295 31.0317 79.5208C32.2472 81.0277 33.2196 82.2484 34.645 83.7076C35.5953 84.6804 36.5235 85.5388 36.5014 86.5306C36.5014 87.141 36.3246 87.6083 36.3246 87.6083C36.1257 88.171 35.9268 88.295 35.7279 88.8291C35.6285 89.0961 35.5843 89.3346 35.518 89.8209C35.3191 91.4327 35.2196 92.2434 35.518 92.7202C35.8163 93.1876 36.413 93.7216 37.0981 93.7407C37.4959 93.7502 37.7943 93.5977 37.96 93.5023C39.8496 92.4818 40.7667 91.757 40.7667 91.757C41.6507 91.0512 42.7115 90.2024 44.0154 89.2869C44.3248 89.0675 44.6231 88.8577 45.043 88.562C45.043 88.562 45.3414 88.3427 45.6066 88.1615C46.1922 87.7323 47.1977 86.9598 47.3635 86.7977C48.4464 85.7295 43.706 80.7797 41.0098 76.5834C38.3357 72.4252 37.4628 68.6866 36.9987 66.5884C35.9489 61.8771 36.2915 58.2148 36.5898 55.0771C36.9324 51.3958 37.2528 48.3343 39.0982 44.6435C39.7611 43.3083 40.844 41.1529 43.0098 38.9689C46.9325 35.0109 53.3857 32.1212 60.5239 32.2166C62.524 32.2452 68.6567 32.4073 73.7065 36.184C77.3088 38.883 78.7895 42.2401 79.8944 44.7674C81.2757 47.9052 81.7619 50.8808 82.0934 52.9503C82.1707 53.3986 82.4912 55.4109 82.6127 58.0718C82.7564 61.1141 82.5906 63.403 82.4912 64.3472C82.3807 65.4726 82.1928 67.2942 81.5851 69.6403C81.2646 70.8515 80.8558 71.9388 80.0602 74.1133C79.3198 76.1542 78.922 77.1651 78.7894 77.4513C78.2701 78.6053 77.7508 79.4636 76.7342 81.1898C76.0933 82.2771 75.6623 83.021 75.0104 84.0414C74.5242 84.7949 74.0601 85.5006 73.4523 86.5783C73.154 87.1124 72.6788 87.4271 72.8225 87.7705C72.8998 87.9517 73.0987 88.0661 74.3253 88.543C74.8999 88.7623 75.1872 88.8672 75.364 88.9244C77.3751 89.5825 79.8944 90.5744 80.3254 90.746C81.5298 91.2229 81.3972 91.2038 82.6459 91.6902C83.8061 92.1385 84.3476 92.3197 85.32 92.7298C86.1487 93.0826 86.4249 93.4546 87.1432 93.5595C87.5189 93.6167 88.1598 93.7312 88.6128 93.4451C89.2869 93.0159 89.2206 91.9096 88.9664 91.1943C88.4913 89.8305 87.3752 89.9068 86.7343 88.5144C86.215 87.3794 86.6349 85.8153 86.6349 85.8153C86.6349 85.8153 88.3255 83.555 89.2979 82.1245C90.9002 79.7592 91.7952 77.8137 92.6129 76.0493C92.9223 75.3817 93.8394 73.3503 94.7455 70.6131C95.1875 69.2684 95.74 67.4277 96.2152 65.2056C97.3202 60.1032 97.3644 56.2979 97.3202 55.4872C97.3202 55.3728 97.276 54.8101 97.276 54.028C97.276 53.389 97.276 53.4939 97.276 52.9312C97.276 52.5498 97.2649 52.4544 97.2428 51.7677C97.2318 51.2909 97.2207 50.9571 97.2207 50.8808C97.1655 48.3057 96.5798 45.0154 96.5798 45.0154C96.2262 43.0412 95.3975 38.3776 92.6571 34.124C91.9831 33.0749 91.3532 32.2452 91.0217 31.816C89.5963 29.9658 87.32 27.057 83.342 24.4629C82.5796 23.9669 80.7342 22.8129 78.1265 21.7638L78.1486 21.7924Z" fill="black" fill-opacity="0.85"/>
<path d="M42.4572 74.2847C43.0318 74.3324 43.9158 74.3992 45.076 74.4564C45.2418 74.4564 45.2418 74.4564 45.3633 74.4755C46.8882 74.5518 47.6728 74.5995 48.4904 74.7139C49.3192 74.8283 49.1203 74.876 50.1037 75.0191C50.833 75.1335 51.4518 75.1812 52.3248 75.2384C54.7226 75.391 54.4574 75.2575 55.8055 75.391C57.7061 75.5722 58.6453 75.6581 58.9105 75.7916C58.9326 75.8011 59.021 75.8488 59.0984 75.8202C59.2531 75.763 59.242 75.4673 59.242 75.2575C59.2089 74.5995 59.0763 74.0654 58.9879 73.6744C58.9437 73.4645 58.8553 73.0926 58.789 72.6348C58.7116 72.1103 58.7337 72.053 58.6564 71.395C58.579 70.6988 58.4685 70.1456 58.4133 69.8023C58.3028 69.1824 58.2917 69.2491 58.2033 68.7436C58.126 68.2573 58.0928 68.0093 57.9934 67.5706C57.9713 67.4752 57.905 67.2749 57.7834 66.8648C57.684 66.531 57.6398 66.388 57.6177 66.3307C57.4409 65.7204 57.474 65.0909 57.4851 64.862C57.5072 64.2803 57.3856 64.2326 57.0983 62.5922C56.7116 60.3986 56.8773 59.4259 56.9215 59.1016C56.9768 58.701 57.0652 58.3768 57.1094 58.1479C57.2641 57.5089 57.4298 57.0225 57.8829 55.6682C58.137 54.9243 58.1481 54.7908 58.1149 54.6191C58.0044 54.0564 57.474 53.6845 56.8221 53.2839C54.8773 52.1013 53.0209 51.3002 53.0209 51.3002C51.8828 50.8138 51.3082 50.6231 50.9877 50.0508C50.6673 49.4881 50.6452 48.8205 50.6452 48.8205C50.6231 48.2292 50.7999 47.8954 50.5236 47.5235C50.38 47.3327 50.1921 47.2374 49.9822 47.1325C49.8827 47.0848 49.0871 46.6938 48.5346 46.9226C48.1479 47.0848 48.0153 47.5139 47.8937 48.172C47.5512 49.9841 47.5954 51.4814 47.6175 52.1013C47.6617 53.0264 47.6728 53.4937 47.7943 54.066C47.9269 54.7145 48.1258 55.3439 48.0263 55.3726C47.9711 55.3916 47.8606 55.239 47.7833 55.1246C47.2971 54.4188 47.1424 53.818 46.8993 53.2172C46.5788 52.4351 46.4131 52.0346 46.0153 51.9201C45.6617 51.8152 45.2528 51.9487 44.9876 52.1299C44.4904 52.4733 44.4572 53.0455 44.4241 54.0564C44.3688 55.5156 44.2031 56.9843 44.2473 58.4435C44.2583 58.7964 44.2915 59.5021 44.1368 59.5308C44.0705 59.5403 44.0152 59.4163 43.8163 59.1207C43.2196 58.2337 43.1091 58.1097 42.9213 58.0143C42.645 57.8713 42.2362 57.795 41.9931 57.9571C41.9157 58.0144 41.8384 58.0906 41.7721 58.3672C41.6616 58.8059 41.6837 59.2065 41.75 59.6071C41.8274 60.1316 41.9599 60.5131 41.971 60.5322C42.3909 61.8006 42.7113 63.0881 43.1754 64.3375C43.2086 64.4329 43.2528 64.6522 43.1754 64.6808C43.0981 64.7094 42.9323 64.5378 42.8218 64.4138C42.0262 63.5459 42.0483 63.2216 41.6174 63.0214C41.0981 62.7734 40.4351 62.9355 40.3025 63.0786C40.2804 63.1072 40.2583 63.1263 40.2583 63.1263C40.2251 63.1835 40.203 63.2979 40.2583 63.5554C40.3467 63.9751 40.3467 64.4138 40.4461 64.8429C40.5898 65.4915 40.5456 65.8253 40.5677 66.4738C40.6229 67.685 40.9544 68.7246 42.424 74.0845L42.4682 74.2657L42.4572 74.2847Z" fill="black" fill-opacity="0.85"/>
<path d="M51.4756 47.7142C51.6192 47.3137 52.0723 47.1897 53.4756 46.6079C54.2933 46.2741 54.7463 46.0739 55.0668 45.6447C55.122 45.5779 55.2215 45.4063 55.2878 45.1774C55.4756 44.4049 54.7574 44.0901 54.4701 43.041C54.2712 42.3162 54.5143 42.4307 54.5032 40.9906C54.5032 40.714 54.4922 40.4469 54.6911 40.3325C54.89 40.218 55.1883 40.3611 55.2215 40.3706C55.6856 40.5805 55.5861 41.0287 56.0502 41.7917C56.2602 42.135 56.4701 42.4783 56.89 42.7358C57.3541 43.0124 57.542 42.8503 58.1608 43.0887C58.2602 43.1269 59.2437 43.5274 59.5862 44.3286C59.7409 44.7005 59.6857 44.9771 59.6083 45.5493C59.4757 46.4744 59.4205 47.4186 59.321 48.3437C59.1995 49.5454 59.1663 50.0413 58.9564 50.7566C58.8901 50.9569 58.8569 51.0618 58.8127 51.2621C58.6359 52.1681 58.9343 52.6354 58.6249 52.8738C58.4812 52.9883 58.2492 52.9978 57.9619 52.9597C56.8458 52.8071 56.1165 52.0823 54.8568 51.1667C53.8955 50.4705 52.9673 49.7266 52.0391 48.9922C51.8844 48.8682 51.564 48.6203 51.4756 48.2197C51.4535 48.1434 51.4203 47.9241 51.4977 47.7047L51.4756 47.7142Z" fill="black" fill-opacity="0.85"/>
<path d="M64.7652 39.0266C64.6768 39.0552 65.0194 39.6465 64.721 40.3332C64.5884 40.6384 64.3895 40.8387 64.1906 41.0294C63.6382 41.5635 63.2846 41.554 62.8205 42.0404C62.6768 42.1929 62.6105 42.2979 62.3564 42.7175C61.3066 44.4437 61.3287 44.4246 61.3177 44.4437C61.0856 44.892 61.0083 45.2067 60.6989 47.1523C59.7265 53.3419 60.1574 52.3309 60.0469 52.8936C60.0469 52.9413 60.0248 53.0176 60.0469 53.1225C60.1132 53.4659 60.5 53.5517 60.7099 53.8569C60.8646 54.0762 60.8536 54.2956 60.8315 54.6199C60.7762 55.4496 60.279 55.6213 60.29 56.0981C60.29 56.6513 60.9641 56.9183 62.1685 57.7766C62.8978 58.2917 63.5277 58.902 64.2238 59.4456C65.8481 60.7427 66.8868 61.5534 67.3841 61.9539C69.2515 63.4322 69.4946 64.2619 71.0305 64.9295C71.5941 65.1775 72.0029 65.3491 72.5886 65.3491C73.3842 65.3491 74.3124 64.7006 76.1135 63.4036C76.8428 62.879 77.3732 62.4594 77.329 61.9539C77.3069 61.725 77.1743 61.582 77.0417 61.4198C76.5113 60.7618 76.5002 60.3803 76.0693 59.4647C75.6273 58.5205 74.5223 56.5273 73.6494 55.2493C72.1024 52.9604 71.5609 53.3037 68.92 50.1469C67.2515 48.1537 66.4117 47.1332 66.2238 45.9506C65.9807 44.4056 66.6437 43.8143 66.1907 41.8878C65.7929 40.1806 64.8757 38.998 64.7652 39.0362L64.7652 39.0266Z" fill="black" fill-opacity="0.85"/>
<path d="M58.7355 57.1266C58.7355 57.1266 58.8018 57.117 58.8239 57.1266C59.0449 57.2601 57.9509 58.4808 57.531 59.9305C57.4979 60.0449 56.9454 62.0763 58.0614 63.4878C58.8239 64.4606 59.6305 64.1936 62.7355 65.2522C62.8018 65.2713 65.7964 66.3013 70.0727 67.6842C70.4815 67.8177 71.244 68.0561 71.697 67.7414C72.1611 67.4171 72.0506 66.6828 72.0064 66.4253" fill="black" fill-opacity="0.85"/>
<path d="M73.0347 68.6191C72.869 68.3807 73.1894 67.9611 73.4657 67.6368C74.1287 66.8357 74.7696 66.2921 74.7696 66.2825C74.7696 66.2825 76.1397 65.0904 77.2447 63.4786C77.4989 63.1162 77.8304 62.7919 78.0514 62.4105C78.1177 62.3055 78.1398 62.2483 78.2171 62.2197C78.626 62.0767 79.5542 63.1734 80.0625 64.0318C80.3277 64.4705 80.6481 65.0236 80.7476 65.8152C80.8028 66.2349 80.8912 66.9215 80.4934 67.6845C80.184 68.2949 79.7089 68.6573 79.3995 68.9053C79.1122 69.1246 78.5597 69.5538 77.7309 69.7731C76.5265 70.0879 75.4215 69.6396 73.2115 68.7527C73.1784 68.7336 73.09 68.705 73.0347 68.6287L73.0347 68.6191Z" fill="black" fill-opacity="0.85"/>
<path d="M21.3718 65.8986C21.7807 68.9981 19.1176 66.6806 16.8303 64.1819C15.3165 62.5606 14.0236 60.9488 13.3385 60.9297C13.3496 61.2921 13.3496 61.5878 13.3496 61.9216C17.648 69.6944 23.0625 76.4753 26.3332 82.951C29.593 88.9308 26.7973 89.4267 21.4602 86.3653C14.543 82.579 6.49864 71.9451 6.59809 64.4871C6.54284 61.0346 8.08983 61.4447 9.90202 63.562C12.775 67.0716 17.4823 74.0338 19.3828 78.8023C19.6812 79.6416 19.7143 80.1948 19.206 79.9754C15.1839 74.5869 10.8302 67.9204 8.66442 65.3645C8.02353 64.6587 7.54838 64.3059 7.28319 64.5634C8.06773 70.4478 14.2225 78.6116 19.5928 81.9401C22.9188 84.1145 25.3277 84.4483 24.9188 82.0164C19.4491 74.5678 12.3109 66.2133 7.92408 55.7034C6.94064 53.3 6.10085 50.8299 5.4489 48.293C4.55386 44.7547 4.76381 42.1224 5.39365 40.6919C5.70305 39.9957 5.9793 39.9003 6.134 40.072C5.92405 41.4262 6.36604 43.6675 6.54284 44.5353C7.57048 49.6949 9.62577 54.9404 12.2114 59.8329C12.2998 59.585 12.4324 59.4324 12.5761 59.3847C10.6645 52.4798 8.46553 39.3376 7.62573 33.6916C7.31634 32.4327 6.97379 31.5744 6.36604 31.603C2.14498 36.5146 3.16157 54.8832 4.17816 62.6655C4.22236 66.2514 2.92952 66.0321 1.32728 64.0102C0.57589 63.0565 -0.031855 61.6355 0.00129469 60.4815C0.763739 61.0632 1.54828 61.3875 1.69193 59.089C1.12839 53.3572 1.50408 35.5227 5.45995 31.0975C8.20033 27.13 9.71417 28.389 10.1451 30.7732C10.4656 35.0173 11.6811 49.1227 13.2059 58.7648C14.112 57.6489 15.5154 58.8125 17.5044 61.0728C18.4546 62.1314 19.416 63.0279 19.8027 63.0946C19.6701 62.2363 19.3497 61.2349 19.195 60.7771C19.2502 60.4719 19.3276 60.3098 19.6259 60.6245C20.2668 61.3112 21.1287 63.9053 21.3608 65.8986L21.3718 65.8986Z" fill="black" fill-opacity="0.85"/>
<path d="M18.0885 46.1948C17.7018 45.5463 17.2377 43.3527 16.862 41.1497C17.2598 45.9468 18.3648 49.7999 17.9559 51.5928C17.6686 52.8994 16.7073 53.7578 15.8343 52.537C14.7515 51.0301 13.4918 47.902 12.8619 44.6498C11.8122 39.6237 12.0774 34.445 13.6575 32.2801C14.4642 31.1547 15.6354 30.7732 16.1216 32.1752C16.1879 31.088 16.2653 30.0198 16.3758 29.1042C17.3924 27.8644 18.2432 27.0728 18.3979 28.0742C18.4974 28.7609 18.1659 31.8986 18.2543 35.2462C18.2874 38.8703 18.7957 42.7901 19.293 44.3065C19.6355 41.3976 19.5692 32.6425 20.9063 27.0061C21.0831 26.7963 21.1162 26.8249 21.1383 26.9488C20.6411 28.1887 20.2322 42.2083 19.7571 45.6417C19.3703 46.6812 18.5084 46.8719 18.0996 46.1757L18.0885 46.1948ZM16.1216 39.5093C15.9559 37.2776 16.0885 34.7407 15.8122 33.7107C15.5802 32.7284 15.083 32.6616 14.6962 33.2052C14.3647 33.8442 13.7017 35.7993 14.6962 42.8759C15.2819 46.6049 16.652 49.714 17.1714 50.2195C17.2045 48.4456 16.3316 44.068 16.1106 39.5093L16.1216 39.5093Z" fill="black" fill-opacity="0.85"/>
<path d="M24.4206 33.8074C24.1443 32.9776 24.2548 30.0306 25.0836 26.8929C25.8681 23.698 27.2825 20.7605 27.2493 20.1215C25.8129 20.5126 21.2272 31.6901 22.531 39.1672C22.4095 39.4629 22.2769 39.7872 22.1001 40.1019C21.6912 40.8553 21.183 41.4085 20.9288 40.8839C20.52 40.0351 20.078 37.1644 20.1332 33.7311C20.1664 30.5075 20.8073 27.1314 21.194 25.0713C20.6857 25.6912 20.3211 26.0632 20.0559 26.3302C19.5586 26.8357 19.3708 26.788 19.3045 26.5496C19.2824 26.3875 19.2934 26.1967 19.3266 25.9774C20.1332 25.1953 20.9178 24.2893 21.647 23.6408C22.6084 22.8015 23.2493 22.7347 23.3045 23.6408C23.3377 24.356 22.5752 27.3793 22.3211 30.517C23.3045 25.0046 25.5256 20.3028 27.4593 19.082C28.5311 18.3858 30.0118 17.9185 29.9455 18.9962C29.9013 19.7973 28.7742 22.2006 27.7908 25.3765C26.8074 28.4379 26.2549 31.8522 26.8074 32.2337C28.2549 29.0102 30.2439 22.6107 32.5644 18.2904C32.7854 18.1569 32.8075 18.1855 32.7964 18.2904C32.1776 19.2727 28.5974 30.374 26.5974 33.7978C25.846 34.7325 24.7852 34.9041 24.4206 33.8169L24.4206 33.8074Z" fill="black" fill-opacity="0.85"/>
<path d="M33.7815 26.8726C31.7373 28.4367 30.0025 28.8563 29.7041 27.2923C29.1185 24.7172 30.787 18.6516 34.2014 15.7237C34.7539 15.2182 35.8147 14.6651 36.533 14.3885C38.4667 13.6637 40.0026 13.8926 39.6932 15.3804C39.3728 16.6583 37.7816 19.92 35.6269 21.1503C35.1628 21.4078 34.6324 21.4937 34.4556 21.2362C35.3175 19.8819 37.2512 16.4581 37.5496 15.2278C37.6048 14.9512 37.5717 14.7891 37.3949 14.7795C35.4943 15.3136 31.7263 22.476 32.3229 25.2132C32.4003 25.8617 32.6876 26.1669 33.1517 26.1287C36.4004 23.0101 39.7706 17.6597 42.6436 14.3027C42.8756 14.2264 42.8977 14.255 42.8646 14.3503C42.1905 15.1038 36.754 23.9256 33.7594 26.8631L33.7815 26.8726Z" fill="black" fill-opacity="0.85"/>
<path d="M43.7572 19.9295C43.7793 19.3192 44.8401 17.488 46.5529 15.7427C48.2766 13.9593 50.2988 12.5382 50.3872 12.0614C48.4424 11.8325 40.9174 19.4813 40.0113 22.9147C38.9947 23.382 38.0444 23.8684 38.0002 23.2485C37.956 22.7239 38.5859 20.683 39.8235 18.4703C40.6301 17.0016 41.6246 15.5234 42.6964 14.1691C45.5031 10.5545 49.2822 7.68383 51.1607 6.57752C50.3982 6.66336 49.8015 6.71104 49.3264 6.73012C48.3761 6.76827 48.1772 6.66336 48.2766 6.444C48.3429 6.33909 48.4866 6.22465 48.6634 6.09113C50.2214 6.06252 51.3375 5.93853 52.3099 5.96715C53.4922 6.01483 53.9784 6.65382 53.68 7.06392C53.4369 7.39772 51.5364 8.4468 50.1441 9.53404C47.5473 11.5082 44.8733 14.2359 43.0058 17.2019C45.691 13.8258 48.9065 11.5082 50.8734 11.4319C51.9894 11.3747 53.3706 11.6704 53.0391 12.3761C52.796 12.9102 51.2159 14.0833 49.4479 15.7618C47.8678 17.2305 46.3208 19.1666 46.4092 19.7293C48.8181 18.2891 52.5861 14.9035 55.4812 12.9674C55.7022 12.9674 55.7132 12.996 55.6801 13.0628C55.0281 13.5683 48.8291 19.2429 45.7904 20.6353C44.7849 20.9595 43.7351 20.7307 43.7793 19.9295L43.7572 19.9295Z" fill="black" fill-opacity="0.85"/>
<path d="M50.7889 17.5161C51.0209 16.0283 53.6176 13.5487 56.2807 12.3947C56.7337 12.1753 57.3746 12.0513 58.347 12.1944C58.4686 12.2135 58.5791 12.2325 58.6896 12.2612C59.231 12.0895 59.9272 12.0227 60.5901 12.1562C62.1482 12.4805 63.3637 13.3865 62.9217 14.0923C62.2918 15.0269 59.7393 16.6387 57.463 17.9167C56.2586 18.5652 54.9547 18.899 53.9823 18.9753C52.1591 19.1374 50.5679 18.8036 50.7999 17.5161L50.7889 17.5161ZM53.463 17.6783C53.3746 18.0979 53.5624 18.3745 54.0596 18.4222C55.5735 17.5447 59.4078 14.9983 60.4465 13.4342C60.6896 13.0146 60.4907 12.8238 59.9603 12.6522C57.5514 13.0527 53.6508 16.1428 53.463 17.6783Z" fill="black" fill-opacity="0.85"/>
<path d="M69.3902 17.2927C69.4238 15.5748 71.2053 14.3516 77.4046 15.595C79.4572 12.4291 81.1702 6.78098 82.2483 3.5417C78.495 3.73137 76.041 4.58811 74.1658 6.04234C72.4869 7.38721 71.8872 9.88112 72.1706 11.4583C72.3101 12.1611 72.6229 12.7265 73.2068 13.0854C75.2465 12.4478 76.3213 8.21648 75.6796 6.45655C75.8119 6.44402 75.9892 6.4591 76.1782 6.50253C76.8785 6.65844 77.7667 7.24895 78.0757 8.52986C78.765 11.2904 76.5194 14.6896 73.5142 13.8702C71.223 13.3114 70.1796 11.8372 69.6499 10.132C68.2166 5.93814 71.593 3.10489 77.8163 2.68776C79.3612 2.58611 80.9315 2.61744 82.6022 2.68466C83.1065 1.65251 84.036 0.391345 85.3185 0.839389C86.1771 1.13482 87.5929 2.47661 87.847 3.339C88.1742 4.46687 85.6731 3.91277 84.4067 3.6647C83.8876 7.14894 82.5366 12.2547 80.5858 15.5136C81.233 15.3178 81.8455 15.0654 82.4681 14.7747C82.8162 14.9863 83.0444 15.2673 83.0207 15.6399C82.9384 16.7484 81.0405 16.4383 80.077 16.3646C79.5686 17.2347 79.0333 17.9146 78.5935 18.4397C76.617 20.688 75.018 21.2679 72.5205 20.4179C70.3692 19.7129 69.3319 18.477 69.3565 17.2744L69.3902 17.2927ZM71.5965 17.5578C71.5408 18.4081 72.0067 19.342 72.9799 19.797C74.5547 19.5707 76.0659 17.7144 76.9694 16.3012C73.9054 16.2082 71.6408 16.2593 71.5742 17.5487L71.5963 17.5482L71.5965 17.5578Z" fill="black" fill-opacity="0.85"/>
<path d="M93.5428 17.7587C93.7671 17.8872 93.9946 18.1397 93.9457 18.3888C93.9415 19.5241 88.802 25.1733 85.1807 22.2977C83.7162 21.2146 82.6704 19.645 82.8581 18.3338C83.1858 16.4471 84.5094 13.7365 86.2874 12.8091C86.8872 12.4903 87.6598 12.4442 88.7481 13.0779C89.9593 13.7661 91.2556 15.1869 91.0752 16.7841C90.8914 18.6772 87.9029 21.1201 85.4395 19.4394C85.2596 19.3194 85.0792 19.1804 84.8865 18.994C84.8254 19.1957 84.7747 19.3781 84.7349 19.5507C84.6069 20.1641 84.7643 20.7044 85.2892 21.3508C87.135 22.2154 91.3379 20.5846 93.5315 17.7494L93.5428 17.7587ZM85.1071 18.5406C87.0204 19.4514 89.5673 16.5987 89.6136 14.9473C89.6297 14.7084 89.5914 14.509 89.4768 14.3494C88.3895 13.7538 86.1171 16.5335 85.1071 18.5406Z" fill="black" fill-opacity="0.85"/>
<path d="M89.8334 24.1864C90.1969 23.2719 94.2492 20.9385 94.3746 20.2202C94.4442 19.9134 94.282 19.6213 94.0732 19.2349C93.4141 18.0954 93.2881 17.4877 93.3851 16.522C93.6005 14.1322 94.5197 13.768 95.4212 14.444C95.8607 14.7775 96.2843 15.3499 96.4888 16.0036C95.9335 16.3309 95.2602 16.804 94.3544 17.6926C94.2142 17.8293 94.1506 17.9357 94.1226 18.1367C94.094 18.3186 94.1313 18.4799 94.2567 18.6297C95.7075 20.4763 96.1512 20.9719 95.9005 21.9793C95.7197 22.6893 94.4645 23.7479 93.2606 24.6528C92.2957 25.3901 91.3737 26.0787 91.1208 26.5614C92.8529 27.3045 96.2477 25.6252 98.4254 23.4677C98.5611 23.5887 98.5628 23.6554 98.5326 23.7706C98.2671 25.0645 92.4604 29.25 90.4569 26.9675C89.8203 26.2759 89.5449 25.0133 89.8336 24.1959L89.8334 24.1864Z" fill="black" fill-opacity="0.85"/>
<path d="M93.9328 31.3346C93.4849 30.6769 92.9891 29.4384 93.4511 28.4835C94.4613 26.4859 98.5947 23.8645 99.2103 22.4292C98.8389 22.1705 98.5565 21.9288 98.3407 21.7047C97.9773 21.3218 97.8701 21.0189 97.9197 20.7984C97.9394 20.7026 97.9814 20.6157 98.0457 20.538C98.6472 21.154 99.2449 21.6175 99.745 22.1596C100.234 22.6828 100.828 23.8714 100.448 25.0152C100.04 26.3505 95.5266 28.8182 94.6702 30.3449C94.628 30.4221 94.5963 30.4801 94.5761 30.5569C95.1589 31.3069 97.2248 30.831 99.3048 29.6106C100.557 28.8573 101.768 27.7901 103.069 26.3965C103.319 26.6294 103.536 26.9203 103.719 27.1832C104.098 27.7375 104.289 28.2961 104.102 28.7391C103.842 29.3746 102.474 30.7983 100.945 31.9395C99.4372 33.0706 97.7235 33.9202 97.0392 34.3935C98.2659 35.2531 102.217 34.5915 105.483 32.19C105.643 32.4058 105.752 32.7564 105.626 33.0168C105.3 33.6824 102.672 35.0964 101.204 35.6256C98.9039 36.4311 96.98 36.4078 96.306 35.116C95.9456 34.4182 95.8163 33.2477 96.2188 32.5613C96.4519 32.1649 96.952 31.8388 97.6255 31.3752C95.7567 32.2092 94.4949 32.1423 93.9443 31.3534L93.9328 31.3346Z" fill="black" fill-opacity="0.85"/>
<path d="M98.6555 40.5099C97.9996 38.6263 98.2009 36.9809 98.7335 36.1961C99.053 35.7214 99.4589 35.5978 99.7369 36.0971C99.5213 37.18 99.217 38.6846 99.2128 39.3907C99.9139 39.5752 101.941 38.4419 104.71 33.8861C105.027 33.3447 104.871 32.8426 105.008 32.5629C105.028 32.5147 105.083 32.4753 105.115 32.4555C107.879 30.3134 108.888 29.5751 109.666 31.0172C110.2 32.0354 110.065 33.6889 109.634 34.996C108.58 33.9609 106.738 32.3521 106.032 33.7227C105.559 34.6778 104.558 37.9249 103.07 39.8283C102.569 40.517 102.03 41.0538 101.529 41.3704C103.177 41.419 105.638 40.3809 107.621 39.2581C107.703 39.4375 107.683 39.5143 107.608 39.6209C106.869 40.9637 99.9069 44.5075 98.6666 40.5096L98.6555 40.5099Z" fill="black" fill-opacity="0.85"/>
<path d="M101.825 48.6911C102.311 48.2223 103.407 47.8732 104.585 47.2646C102.29 47.8602 100.474 48.1683 100.276 46.8658C100.13 45.9151 100.47 44.1044 101.232 43.2095C102.199 42.1097 103.697 41.0265 105.125 40.2311C107.326 38.9984 109.467 38.0057 110.104 40.0233C110.429 41.0558 110.259 43.063 109.289 44.4682C109.835 44.1888 110.357 43.8812 110.815 43.6229C111.111 44.8468 111.227 45.9317 110.53 46.7679C110.07 47.3412 108.326 48.3345 106.512 49.1196C104.544 49.9654 102.545 50.4589 101.607 50.957C102.228 52.3454 106.575 52.0374 109.835 50.695C109.873 50.8944 109.831 50.9717 109.723 51.0791C108.671 52.3335 100.807 54.2949 100.746 51.4344C100.724 50.5858 101.296 49.1801 101.814 48.6818L101.825 48.6911ZM105.724 45.9701C106.798 45.5929 107.994 45.2511 108.636 44.4352C109.236 43.7062 109.467 42.7661 109.332 42.2635C109.173 41.647 108.351 41.9136 105.032 43.534C103.296 44.365 101.601 45.5194 101.131 46.1597C101.623 46.8163 103.553 46.6488 105.713 45.9799L105.724 45.9701Z" fill="black" fill-opacity="0.85"/>
<path d="M102.55 54.0842C106.634 51.2636 118.537 44.6795 119.101 49.4654C119.178 50.3127 118.685 51.7929 118.159 52.3963C115.297 55.8953 107.149 57.9967 106.54 54.4902C104.933 55.2134 103.569 55.8833 102.604 56.6301C102.171 56.9643 101.804 57.3446 101.549 57.732C102.2 59.4344 106.283 59.6094 109.716 58.5302C109.721 58.74 109.668 58.8175 109.549 58.9156C108.286 60.1175 100.063 61.4384 100.559 57.8974C100.705 56.7112 101.587 54.8978 102.561 54.084L102.55 54.0842ZM107.381 54.1087C108.511 55.9244 118.018 52.1037 118.439 50.835C118.003 49.7573 113.655 51.3246 109.436 53.2037C108.736 53.4962 108.037 53.8173 107.381 54.1087Z" fill="black" fill-opacity="0.85"/>
<path d="M98.5322 66.9289L98.5315 66.9003C99.3768 64.5058 100.968 61.875 102.683 60.6724C105.204 58.9556 108.957 57.4589 110.855 58.1793C111.49 58.413 111.916 59.0807 111.702 60.6596C111.471 62.4106 110.407 64.9055 108.354 66.3256C105.943 68.0113 101.357 68.029 102.429 64.1411C102.499 63.8533 102.591 63.5555 102.748 63.1895C102.464 63.3485 102.214 63.4877 101.974 63.6362C101.126 64.1705 100.481 64.8815 99.9533 65.876C99.1712 69.4521 103.554 70.1068 107.381 69.3621C107.332 69.5827 107.256 69.6512 107.115 69.7497C105.551 70.8535 96.9717 71.1903 98.5435 66.9382L98.5322 66.9289ZM103.436 62.8877C103.149 65.5081 107.95 64.7797 109.911 63.2281C110.204 63.0021 110.419 62.7778 110.556 62.5171C110.749 60.9673 106.433 61.6562 103.436 62.8877Z" fill="black" fill-opacity="0.85"/>
<path d="M95.9726 76.6985C97.1103 76.234 99.2185 76.1196 101.244 76.217C103.334 76.2843 105.197 76.4998 106.144 75.9347C106.947 74.4855 100.907 73.4103 96.0049 73.6259C96.0766 73.4049 96.1584 73.1455 96.3053 72.8369C96.6732 72.094 97.281 71.2217 97.9145 70.9212C98.9299 70.4308 100.868 70.1486 103.146 69.7537C105.27 69.3909 107.364 69.1433 108.909 68.641C108.972 68.0767 109.104 67.5968 109.206 67.251C109.388 66.5887 109.666 66.2294 109.947 65.9941C110.11 65.8759 110.274 65.7864 110.416 65.7355C110.134 66.8008 110.024 67.6905 109.737 68.6032C109.37 69.7945 108.591 70.9091 107.525 71.5628C106.676 72.0876 104.487 72.4805 102.251 72.8171C105.299 73.1395 108.264 73.2252 107.271 75.4609C106.727 76.6942 105.254 78.7404 103.66 79.511C102.492 80.0811 100.504 80.1451 98.321 79.9367C96.3054 79.7819 94.405 79.3764 93.0503 79.9985C92.8445 81.0334 93.8187 81.5266 94.8644 81.7892C94.7158 82.031 94.5113 82.2455 94.1499 82.3777C92.5941 82.9184 90.4867 81.764 91.8216 79.9308C92.6013 78.8638 94.5074 77.323 95.9618 76.7083L95.9726 76.6985Z" fill="black" fill-opacity="0.85"/>
<mask id="mask0_1423_184" style="mask-type:alpha" maskUnits="userSpaceOnUse" x="83" y="69" width="10" height="8">
<path d="M90.1537 76.4875L83 75.5388C83.5949 73.3592 84.1754 71.1796 84.7703 69C87.2951 69.3162 89.8345 69.6211 92.3593 69.9373C91.6193 72.117 90.8793 74.2966 90.1392 76.4875L90.1537 76.4875Z" fill="white"/>
</mask>
<g mask="url(#mask0_1423_184)">
<path d="M-7.9043 -14.2981L125.11 -14.2981L125.11 105.415L-7.9043 105.415L-7.9043 -14.2981Z" fill="white"/>
</g>
<mask id="mask1_1423_184" style="mask-type:alpha" maskUnits="userSpaceOnUse" x="85" y="55" width="10" height="7">
<path d="M94.9933 60.4665C92.0565 60.7706 89.1196 61.0748 86.1828 61.3789C86.0443 59.5845 85.903 57.7806 85.7645 55.9862C88.5491 55.853 91.3337 55.7198 94.1183 55.5866C94.409 57.2101 94.7026 58.843 94.9933 60.4665Z" fill="white"/>
</mask>
<g mask="url(#mask1_1423_184)">
<rect x="-11.0635" y="-16.4846" width="138.425" height="124.583" fill="white"/>
</g>
<mask id="mask2_1423_184" style="mask-type:alpha" maskUnits="userSpaceOnUse" x="82" y="40" width="12" height="8">
<path d="M93.2683 45.0701L85.1659 47.5684L82.9531 42.8034C85.49 42.0124 88.0381 41.2311 90.5749 40.4402C91.469 41.9835 92.363 43.5268 93.2571 45.0701L93.2683 45.0701Z" fill="white"/>
</mask>
<g mask="url(#mask2_1423_184)">
<rect x="-8.03516" y="-14.3613" width="134.528" height="121.075" fill="white"/>
</g>
<mask id="mask3_1423_184" style="mask-type:alpha" maskUnits="userSpaceOnUse" x="28" y="68" width="9" height="8">
<path d="M36.4234 72.7952C34.6074 73.6965 32.8042 74.5862 30.9881 75.4875C29.9964 73.812 28.9917 72.1366 28 70.4612C29.9449 69.6408 31.9026 68.8204 33.8474 68C34.7104 69.5946 35.5605 71.1891 36.4234 72.7837L36.4234 72.7952Z" fill="white"/>
</mask>
<g mask="url(#mask3_1423_184)">
<rect x="-5.69336" y="-13.4268" width="133.014" height="119.713" fill="white"/>
</g>
<mask id="mask4_1423_184" style="mask-type:alpha" maskUnits="userSpaceOnUse" x="24" y="54" width="10" height="7">
<path d="M33.6465 59.6215C30.6892 59.9701 27.7319 60.3186 24.7746 60.6672C24.6094 58.8596 24.4411 57.0425 24.2759 55.2349C27.0822 55.0609 29.8884 54.8869 32.6946 54.7129C33.0109 56.3459 33.3303 57.9885 33.6465 59.6215Z" fill="white"/>
</mask>
<g mask="url(#mask4_1423_184)">
<rect x="-29.0771" y="-1.14966" width="139.609" height="125.648" transform="rotate(-17.7689 -29.0771 -1.14966)" fill="white"/>
</g>
<mask id="mask5_1423_184" style="mask-type:alpha" maskUnits="userSpaceOnUse" x="25" y="42" width="11" height="8">
<path d="M25.147 47.1135L27.6194 42.3516C30.1137 43.1252 32.6096 43.9086 35.1039 44.6822C34.5094 46.165 33.9148 47.6479 33.3187 49.1209C30.5937 48.4452 27.8703 47.7794 25.1454 47.1036L25.147 47.1135Z" fill="white"/>
</mask>
<g mask="url(#mask5_1423_184)">
<rect x="-20.4961" y="-7.54858" width="139.438" height="125.494" transform="rotate(-9.13448 -20.4961 -7.54858)" fill="white"/>
</g>
</svg>
